<mxfile host="Electron" agent="Mozilla/5.0 (Windows NT 10.0; Win64; x64) AppleWebKit/537.36 (KHTML, like Gecko) draw.io/28.1.2 Chrome/138.0.7204.243 Electron/37.4.0 Safari/537.36" version="28.1.2">
  <diagram name="Page-1" id="M5KN14LnDX_lgXk43yuh">
    <mxGraphModel dx="1783" dy="1201" grid="1" gridSize="10" guides="1" tooltips="1" connect="1" arrows="1" fold="1" page="1" pageScale="1" pageWidth="1100" pageHeight="850" math="0" shadow="0">
      <root>
        <mxCell id="0" />
        <mxCell id="1" parent="0" />
        <mxCell id="2AZSGgTTGKiScR64f8am-45" value="Step 3:&lt;div&gt;Recommendations&lt;/div&gt;" style="text;html=1;align=left;verticalAlign=middle;whiteSpace=wrap;rounded=0;fontSize=28;fontStyle=1" parent="1" vertex="1">
          <mxGeometry x="799.9999999999999" y="192" width="250" height="30" as="geometry" />
        </mxCell>
        <mxCell id="2AZSGgTTGKiScR64f8am-44" value="Step 2:&lt;div&gt;Candidate Items&lt;/div&gt;" style="text;html=1;align=left;verticalAlign=middle;whiteSpace=wrap;rounded=0;fontSize=28;fontStyle=1" parent="1" vertex="1">
          <mxGeometry x="428" y="192" width="230" height="30" as="geometry" />
        </mxCell>
        <mxCell id="2AZSGgTTGKiScR64f8am-43" value="Step 1:&lt;div&gt;Item Pool&lt;/div&gt;" style="text;html=1;align=left;verticalAlign=middle;whiteSpace=wrap;rounded=0;fontSize=28;fontStyle=1" parent="1" vertex="1">
          <mxGeometry x="50" y="195" width="178" height="30" as="geometry" />
        </mxCell>
        <mxCell id="2AZSGgTTGKiScR64f8am-25" value="" style="group" parent="1" vertex="1" connectable="0">
          <mxGeometry x="50" y="285" width="190" height="180" as="geometry" />
        </mxCell>
        <mxCell id="2AZSGgTTGKiScR64f8am-4" value="" style="ellipse;whiteSpace=wrap;html=1;aspect=fixed;fillColor=#000000;" parent="2AZSGgTTGKiScR64f8am-25" vertex="1">
          <mxGeometry y="29.999999999999996" width="21.599999999999998" height="21.599999999999998" as="geometry" />
        </mxCell>
        <mxCell id="2AZSGgTTGKiScR64f8am-7" value="" style="ellipse;whiteSpace=wrap;html=1;aspect=fixed;fillColor=#FF2100;" parent="2AZSGgTTGKiScR64f8am-25" vertex="1">
          <mxGeometry x="167.2" y="52.49999999999999" width="21.599999999999998" height="21.599999999999998" as="geometry" />
        </mxCell>
        <mxCell id="2AZSGgTTGKiScR64f8am-8" value="" style="ellipse;whiteSpace=wrap;html=1;aspect=fixed;fillColor=#000000;" parent="2AZSGgTTGKiScR64f8am-25" vertex="1">
          <mxGeometry y="82.5" width="21.599999999999998" height="21.599999999999998" as="geometry" />
        </mxCell>
        <mxCell id="2AZSGgTTGKiScR64f8am-9" value="" style="ellipse;whiteSpace=wrap;html=1;aspect=fixed;fillColor=#000000;" parent="2AZSGgTTGKiScR64f8am-25" vertex="1">
          <mxGeometry y="135" width="21.599999999999998" height="21.599999999999998" as="geometry" />
        </mxCell>
        <mxCell id="2AZSGgTTGKiScR64f8am-10" value="" style="ellipse;whiteSpace=wrap;html=1;aspect=fixed;fillColor=#FF2100;" parent="2AZSGgTTGKiScR64f8am-25" vertex="1">
          <mxGeometry x="167.2" y="104.99999999999999" width="21.599999999999998" height="21.599999999999998" as="geometry" />
        </mxCell>
        <mxCell id="2AZSGgTTGKiScR64f8am-11" value="" style="ellipse;whiteSpace=wrap;html=1;aspect=fixed;fillColor=#FF2100;" parent="2AZSGgTTGKiScR64f8am-25" vertex="1">
          <mxGeometry x="167.2" width="21.599999999999998" height="21.599999999999998" as="geometry" />
        </mxCell>
        <mxCell id="2AZSGgTTGKiScR64f8am-12" value="" style="ellipse;whiteSpace=wrap;html=1;aspect=fixed;fillColor=#FF2100;" parent="2AZSGgTTGKiScR64f8am-25" vertex="1">
          <mxGeometry x="167.2" y="157.5" width="21.599999999999998" height="21.599999999999998" as="geometry" />
        </mxCell>
        <mxCell id="2AZSGgTTGKiScR64f8am-13" value="" style="endArrow=none;html=1;rounded=0;entryX=0;entryY=0.5;entryDx=0;entryDy=0;strokeWidth=3;exitX=1;exitY=0.5;exitDx=0;exitDy=0;" parent="2AZSGgTTGKiScR64f8am-25" source="2AZSGgTTGKiScR64f8am-4" target="2AZSGgTTGKiScR64f8am-11" edge="1">
          <mxGeometry width="50" height="50" relative="1" as="geometry">
            <mxPoint x="53.199999999999996" y="22.5" as="sourcePoint" />
            <mxPoint x="91.19999999999999" y="14.999999999999998" as="targetPoint" />
          </mxGeometry>
        </mxCell>
        <mxCell id="2AZSGgTTGKiScR64f8am-14" value="" style="endArrow=none;html=1;rounded=0;exitX=1;exitY=0.5;exitDx=0;exitDy=0;entryX=0;entryY=0.5;entryDx=0;entryDy=0;strokeWidth=3;" parent="2AZSGgTTGKiScR64f8am-25" source="2AZSGgTTGKiScR64f8am-4" target="2AZSGgTTGKiScR64f8am-7" edge="1">
          <mxGeometry width="50" height="50" relative="1" as="geometry">
            <mxPoint x="38" y="116.25" as="sourcePoint" />
            <mxPoint x="182.39999999999998" y="90" as="targetPoint" />
          </mxGeometry>
        </mxCell>
        <mxCell id="2AZSGgTTGKiScR64f8am-15" value="" style="endArrow=none;html=1;rounded=0;exitX=1;exitY=0.5;exitDx=0;exitDy=0;entryX=0;entryY=0.5;entryDx=0;entryDy=0;strokeWidth=3;" parent="2AZSGgTTGKiScR64f8am-25" source="2AZSGgTTGKiScR64f8am-8" target="2AZSGgTTGKiScR64f8am-7" edge="1">
          <mxGeometry width="50" height="50" relative="1" as="geometry">
            <mxPoint x="167.2" y="59.99999999999999" as="sourcePoint" />
            <mxPoint x="311.59999999999997" y="82.5" as="targetPoint" />
          </mxGeometry>
        </mxCell>
        <mxCell id="2AZSGgTTGKiScR64f8am-16" value="" style="endArrow=none;html=1;rounded=0;exitX=1;exitY=0.5;exitDx=0;exitDy=0;entryX=0;entryY=0.5;entryDx=0;entryDy=0;strokeWidth=3;" parent="2AZSGgTTGKiScR64f8am-25" source="2AZSGgTTGKiScR64f8am-9" target="2AZSGgTTGKiScR64f8am-12" edge="1">
          <mxGeometry width="50" height="50" relative="1" as="geometry">
            <mxPoint x="114" y="119.99999999999999" as="sourcePoint" />
            <mxPoint x="258.4" y="90" as="targetPoint" />
          </mxGeometry>
        </mxCell>
        <mxCell id="2AZSGgTTGKiScR64f8am-17" value="" style="endArrow=none;html=1;rounded=0;exitX=1;exitY=0.5;exitDx=0;exitDy=0;entryX=0;entryY=0.5;entryDx=0;entryDy=0;strokeWidth=3;" parent="2AZSGgTTGKiScR64f8am-25" source="2AZSGgTTGKiScR64f8am-4" target="2AZSGgTTGKiScR64f8am-10" edge="1">
          <mxGeometry width="50" height="50" relative="1" as="geometry">
            <mxPoint x="22.799999999999997" y="104.99999999999999" as="sourcePoint" />
            <mxPoint x="167.2" y="127.5" as="targetPoint" />
          </mxGeometry>
        </mxCell>
        <mxCell id="2AZSGgTTGKiScR64f8am-18" value="" style="endArrow=none;html=1;rounded=0;exitX=1;exitY=0.5;exitDx=0;exitDy=0;entryX=0;entryY=0.5;entryDx=0;entryDy=0;strokeWidth=3;" parent="2AZSGgTTGKiScR64f8am-25" source="2AZSGgTTGKiScR64f8am-9" target="2AZSGgTTGKiScR64f8am-10" edge="1">
          <mxGeometry width="50" height="50" relative="1" as="geometry">
            <mxPoint x="53.199999999999996" y="150" as="sourcePoint" />
            <mxPoint x="197.6" y="172.5" as="targetPoint" />
          </mxGeometry>
        </mxCell>
        <mxCell id="gK7AgI7E6JT6_swrLAjn-5" value="" style="ellipse;whiteSpace=wrap;html=1;aspect=fixed;fillColor=#000000;" vertex="1" parent="1">
          <mxGeometry x="50" y="521" width="23.999999999999996" height="23.999999999999996" as="geometry" />
        </mxCell>
        <mxCell id="gK7AgI7E6JT6_swrLAjn-6" value="" style="ellipse;whiteSpace=wrap;html=1;aspect=fixed;fillColor=#FF2100;" vertex="1" parent="1">
          <mxGeometry x="50" y="564" width="23.999999999999996" height="23.999999999999996" as="geometry" />
        </mxCell>
        <mxCell id="gK7AgI7E6JT6_swrLAjn-7" value="&lt;span style=&quot;font-size: 22px;&quot;&gt;&lt;b&gt;Readers&lt;/b&gt;&lt;/span&gt;" style="text;html=1;align=left;verticalAlign=middle;whiteSpace=wrap;rounded=0;" vertex="1" parent="1">
          <mxGeometry x="100" y="515" width="60" height="30" as="geometry" />
        </mxCell>
        <mxCell id="gK7AgI7E6JT6_swrLAjn-9" value="&lt;font style=&quot;font-size: 22px;&quot;&gt;&lt;b style=&quot;&quot;&gt;Articles&lt;/b&gt;&lt;/font&gt;" style="text;html=1;align=left;verticalAlign=middle;whiteSpace=wrap;rounded=0;" vertex="1" parent="1">
          <mxGeometry x="100" y="561" width="60" height="30" as="geometry" />
        </mxCell>
        <mxCell id="2AZSGgTTGKiScR64f8am-47" value="" style="shape=note;whiteSpace=wrap;html=1;backgroundOutline=1;darkOpacity=0.05;size=15;" parent="1" vertex="1">
          <mxGeometry x="917.4999999999999" y="287" width="45" height="60" as="geometry" />
        </mxCell>
        <mxCell id="2AZSGgTTGKiScR64f8am-50" value="" style="shape=note;whiteSpace=wrap;html=1;backgroundOutline=1;darkOpacity=0.05;size=15;" parent="1" vertex="1">
          <mxGeometry x="909.9999999999999" y="293.25" width="45" height="60" as="geometry" />
        </mxCell>
        <mxCell id="2AZSGgTTGKiScR64f8am-52" value="" style="shape=note;whiteSpace=wrap;html=1;backgroundOutline=1;darkOpacity=0.05;size=15;" parent="1" vertex="1">
          <mxGeometry x="902.4999999999999" y="299.5" width="45" height="60" as="geometry" />
        </mxCell>
        <mxCell id="2AZSGgTTGKiScR64f8am-56" value="" style="endArrow=classic;html=1;rounded=0;fontStyle=0;strokeWidth=4;" parent="1" edge="1">
          <mxGeometry width="50" height="50" relative="1" as="geometry">
            <mxPoint x="911.93" y="583" as="sourcePoint" />
            <mxPoint x="911.93" y="523" as="targetPoint" />
          </mxGeometry>
        </mxCell>
        <mxCell id="2AZSGgTTGKiScR64f8am-58" value="" style="endArrow=classic;html=1;rounded=0;fontStyle=0;strokeWidth=4;" parent="1" edge="1">
          <mxGeometry width="50" height="50" relative="1" as="geometry">
            <mxPoint x="941.93" y="523" as="sourcePoint" />
            <mxPoint x="941.93" y="583" as="targetPoint" />
          </mxGeometry>
        </mxCell>
        <mxCell id="2AZSGgTTGKiScR64f8am-59" value="&lt;font style=&quot;font-size: 22px;&quot;&gt;Candidate Items&lt;/font&gt;" style="text;html=1;align=center;verticalAlign=middle;whiteSpace=wrap;rounded=0;fontStyle=1;fontSize=14;" parent="1" vertex="1">
          <mxGeometry x="834.18" y="387" width="196.63" height="30" as="geometry" />
        </mxCell>
        <mxCell id="2AZSGgTTGKiScR64f8am-60" value="&lt;font style=&quot;font-size: 22px;&quot;&gt;Re-ranking&lt;/font&gt;" style="text;html=1;align=center;verticalAlign=middle;whiteSpace=wrap;rounded=0;fontStyle=1;fontSize=14;" parent="1" vertex="1">
          <mxGeometry x="873.81" y="587" width="117.37" height="30" as="geometry" />
        </mxCell>
        <mxCell id="2AZSGgTTGKiScR64f8am-61" value="&lt;b&gt;&lt;font style=&quot;font-size: 32px;&quot;&gt;+&lt;/font&gt;&lt;/b&gt;" style="text;strokeColor=none;fillColor=none;align=left;verticalAlign=middle;spacingLeft=4;spacingRight=4;overflow=hidden;points=[[0,0.5],[1,0.5]];portConstraint=eastwest;rotatable=0;whiteSpace=wrap;html=1;" parent="1" vertex="1">
          <mxGeometry x="914.9899999999999" y="445.5" width="50" height="30" as="geometry" />
        </mxCell>
        <mxCell id="2AZSGgTTGKiScR64f8am-30" value="" style="shape=internalStorage;whiteSpace=wrap;html=1;backgroundOutline=1;" parent="1" vertex="1">
          <mxGeometry x="490.5" y="502" width="70" height="70" as="geometry" />
        </mxCell>
        <mxCell id="2AZSGgTTGKiScR64f8am-31" value="&lt;font style=&quot;font-size: 22px;&quot;&gt;Normative Distributions&lt;br&gt;and Heuristic Filters&lt;/font&gt;" style="text;html=1;align=center;verticalAlign=middle;whiteSpace=wrap;rounded=0;fontStyle=1;fontSize=14;" parent="1" vertex="1">
          <mxGeometry x="371" y="600" width="320" height="30" as="geometry" />
        </mxCell>
        <mxCell id="2AZSGgTTGKiScR64f8am-38" value="" style="group" parent="1" vertex="1" connectable="0">
          <mxGeometry x="428" y="288.25" width="95" height="85" as="geometry" />
        </mxCell>
        <mxCell id="2AZSGgTTGKiScR64f8am-34" value="" style="curved=1;endArrow=classic;html=1;rounded=0;strokeWidth=5;" parent="2AZSGgTTGKiScR64f8am-38" edge="1">
          <mxGeometry width="50" height="50" relative="1" as="geometry">
            <mxPoint x="17" y="50" as="sourcePoint" />
            <mxPoint x="67" as="targetPoint" />
            <Array as="points">
              <mxPoint x="67" y="50" />
              <mxPoint x="17" />
            </Array>
          </mxGeometry>
        </mxCell>
        <mxCell id="2AZSGgTTGKiScR64f8am-29" value="&lt;font style=&quot;font-size: 22px;&quot;&gt;Run Random Walk on Item Pool&lt;br&gt;&lt;/font&gt;" style="text;html=1;align=center;verticalAlign=middle;whiteSpace=wrap;rounded=0;fontStyle=1;fontSize=14;" parent="1" vertex="1">
          <mxGeometry x="421.75" y="382" width="207.5" height="30" as="geometry" />
        </mxCell>
        <mxCell id="2AZSGgTTGKiScR64f8am-62" value="" style="group" parent="1" vertex="1" connectable="0">
          <mxGeometry x="528" y="264.5" width="80" height="90" as="geometry" />
        </mxCell>
        <mxCell id="2AZSGgTTGKiScR64f8am-63" value="" style="ellipse;whiteSpace=wrap;html=1;aspect=fixed;fillColor=#000000;" parent="2AZSGgTTGKiScR64f8am-62" vertex="1">
          <mxGeometry y="15" width="9.600000000000001" height="9.600000000000001" as="geometry" />
        </mxCell>
        <mxCell id="2AZSGgTTGKiScR64f8am-64" value="" style="ellipse;whiteSpace=wrap;html=1;aspect=fixed;fillColor=#FF2100;" parent="2AZSGgTTGKiScR64f8am-62" vertex="1">
          <mxGeometry x="70.4" y="26.249999999999996" width="9.600000000000001" height="9.600000000000001" as="geometry" />
        </mxCell>
        <mxCell id="2AZSGgTTGKiScR64f8am-65" value="" style="ellipse;whiteSpace=wrap;html=1;aspect=fixed;fillColor=#000000;" parent="2AZSGgTTGKiScR64f8am-62" vertex="1">
          <mxGeometry y="41.25" width="9.600000000000001" height="9.600000000000001" as="geometry" />
        </mxCell>
        <mxCell id="2AZSGgTTGKiScR64f8am-66" value="" style="ellipse;whiteSpace=wrap;html=1;aspect=fixed;fillColor=#000000;" parent="2AZSGgTTGKiScR64f8am-62" vertex="1">
          <mxGeometry y="67.5" width="9.600000000000001" height="9.600000000000001" as="geometry" />
        </mxCell>
        <mxCell id="2AZSGgTTGKiScR64f8am-67" value="" style="ellipse;whiteSpace=wrap;html=1;aspect=fixed;fillColor=#FF2100;" parent="2AZSGgTTGKiScR64f8am-62" vertex="1">
          <mxGeometry x="70.4" y="52.49999999999999" width="9.600000000000001" height="9.600000000000001" as="geometry" />
        </mxCell>
        <mxCell id="2AZSGgTTGKiScR64f8am-68" value="" style="ellipse;whiteSpace=wrap;html=1;aspect=fixed;fillColor=#FF2100;" parent="2AZSGgTTGKiScR64f8am-62" vertex="1">
          <mxGeometry x="70.4" width="9.600000000000001" height="9.600000000000001" as="geometry" />
        </mxCell>
        <mxCell id="2AZSGgTTGKiScR64f8am-69" value="" style="ellipse;whiteSpace=wrap;html=1;aspect=fixed;fillColor=#FF2100;" parent="2AZSGgTTGKiScR64f8am-62" vertex="1">
          <mxGeometry x="70.4" y="78.75000000000001" width="9.600000000000001" height="9.600000000000001" as="geometry" />
        </mxCell>
        <mxCell id="2AZSGgTTGKiScR64f8am-70" value="" style="endArrow=none;html=1;rounded=0;entryX=0;entryY=0.5;entryDx=0;entryDy=0;strokeWidth=3;exitX=1;exitY=0.5;exitDx=0;exitDy=0;" parent="2AZSGgTTGKiScR64f8am-62" source="2AZSGgTTGKiScR64f8am-63" target="2AZSGgTTGKiScR64f8am-68" edge="1">
          <mxGeometry width="50" height="50" relative="1" as="geometry">
            <mxPoint x="22.400000000000006" y="11.250000000000002" as="sourcePoint" />
            <mxPoint x="38.400000000000006" y="7.5" as="targetPoint" />
          </mxGeometry>
        </mxCell>
        <mxCell id="2AZSGgTTGKiScR64f8am-71" value="" style="endArrow=none;html=1;rounded=0;exitX=1;exitY=0.5;exitDx=0;exitDy=0;entryX=0;entryY=0.5;entryDx=0;entryDy=0;strokeWidth=3;" parent="2AZSGgTTGKiScR64f8am-62" source="2AZSGgTTGKiScR64f8am-63" target="2AZSGgTTGKiScR64f8am-64" edge="1">
          <mxGeometry width="50" height="50" relative="1" as="geometry">
            <mxPoint x="16" y="58.12500000000001" as="sourcePoint" />
            <mxPoint x="76.80000000000001" y="45.00000000000001" as="targetPoint" />
          </mxGeometry>
        </mxCell>
        <mxCell id="2AZSGgTTGKiScR64f8am-72" value="" style="endArrow=none;html=1;rounded=0;exitX=1;exitY=0.5;exitDx=0;exitDy=0;entryX=0;entryY=0.5;entryDx=0;entryDy=0;strokeWidth=3;" parent="2AZSGgTTGKiScR64f8am-62" source="2AZSGgTTGKiScR64f8am-65" target="2AZSGgTTGKiScR64f8am-64" edge="1">
          <mxGeometry width="50" height="50" relative="1" as="geometry">
            <mxPoint x="70.4" y="30" as="sourcePoint" />
            <mxPoint x="131.20000000000002" y="41.25" as="targetPoint" />
          </mxGeometry>
        </mxCell>
        <mxCell id="2AZSGgTTGKiScR64f8am-73" value="" style="endArrow=none;html=1;rounded=0;exitX=1;exitY=0.5;exitDx=0;exitDy=0;entryX=0;entryY=0.5;entryDx=0;entryDy=0;strokeWidth=3;" parent="2AZSGgTTGKiScR64f8am-62" source="2AZSGgTTGKiScR64f8am-66" target="2AZSGgTTGKiScR64f8am-69" edge="1">
          <mxGeometry width="50" height="50" relative="1" as="geometry">
            <mxPoint x="48" y="60" as="sourcePoint" />
            <mxPoint x="108.80000000000003" y="45.00000000000001" as="targetPoint" />
          </mxGeometry>
        </mxCell>
        <mxCell id="2AZSGgTTGKiScR64f8am-74" value="" style="endArrow=none;html=1;rounded=0;exitX=1;exitY=0.5;exitDx=0;exitDy=0;entryX=0;entryY=0.5;entryDx=0;entryDy=0;strokeWidth=3;" parent="2AZSGgTTGKiScR64f8am-62" source="2AZSGgTTGKiScR64f8am-63" target="2AZSGgTTGKiScR64f8am-67" edge="1">
          <mxGeometry width="50" height="50" relative="1" as="geometry">
            <mxPoint x="9.600000000000001" y="52.49999999999999" as="sourcePoint" />
            <mxPoint x="70.4" y="63.75000000000001" as="targetPoint" />
          </mxGeometry>
        </mxCell>
        <mxCell id="2AZSGgTTGKiScR64f8am-75" value="" style="endArrow=none;html=1;rounded=0;exitX=1;exitY=0.5;exitDx=0;exitDy=0;entryX=0;entryY=0.5;entryDx=0;entryDy=0;strokeWidth=3;" parent="2AZSGgTTGKiScR64f8am-62" source="2AZSGgTTGKiScR64f8am-66" target="2AZSGgTTGKiScR64f8am-67" edge="1">
          <mxGeometry width="50" height="50" relative="1" as="geometry">
            <mxPoint x="22.400000000000006" y="75.00000000000001" as="sourcePoint" />
            <mxPoint x="83.2" y="86.25000000000001" as="targetPoint" />
          </mxGeometry>
        </mxCell>
        <mxCell id="gK7AgI7E6JT6_swrLAjn-14" value="&lt;b&gt;&lt;font style=&quot;font-size: 32px;&quot;&gt;+&lt;/font&gt;&lt;/b&gt;" style="text;strokeColor=none;fillColor=none;align=left;verticalAlign=middle;spacingLeft=4;spacingRight=4;overflow=hidden;points=[[0,0.5],[1,0.5]];portConstraint=eastwest;rotatable=0;whiteSpace=wrap;html=1;" vertex="1" parent="1">
          <mxGeometry x="513" y="438.5" width="50" height="30" as="geometry" />
        </mxCell>
        <mxCell id="gK7AgI7E6JT6_swrLAjn-15" value="" style="endArrow=none;html=1;rounded=0;strokeWidth=3;" edge="1" parent="1">
          <mxGeometry width="50" height="50" relative="1" as="geometry">
            <mxPoint x="330" y="671" as="sourcePoint" />
            <mxPoint x="330" y="151" as="targetPoint" />
          </mxGeometry>
        </mxCell>
        <mxCell id="gK7AgI7E6JT6_swrLAjn-16" value="" style="endArrow=none;html=1;rounded=0;strokeWidth=3;" edge="1" parent="1">
          <mxGeometry width="50" height="50" relative="1" as="geometry">
            <mxPoint x="742" y="670" as="sourcePoint" />
            <mxPoint x="742" y="150" as="targetPoint" />
          </mxGeometry>
        </mxCell>
      </root>
    </mxGraphModel>
  </diagram>
</mxfile>
